<?xml version="1.0" standalone="no"?>
<svg xmlns:xlink="http://www.w3.org/1999/xlink" id="wave" style="transform:rotate(0deg); transition: 0.3s" viewBox="0 0 1440 490" version="1.1" xmlns="http://www.w3.org/2000/svg"><defs><linearGradient id="sw-gradient-0" x1="0" x2="0" y1="1" y2="0"><stop stop-color="rgba(139, 69, 19, 1)" offset="0%"/><stop stop-color="rgba(210, 105, 30, 1)" offset="100%"/></linearGradient></defs><path style="transform:translate(0, 0px); opacity:1" fill="url(#sw-gradient-0)" d="M0,441L120,432.8C240,425,480,408,720,383.8C960,359,1200,327,1440,285.8C1680,245,1920,196,2160,196C2400,196,2640,245,2880,236.8C3120,229,3360,163,3600,187.8C3840,212,4080,327,4320,351.2C4560,376,4800,310,5040,253.2C5280,196,5520,147,5760,171.5C6000,196,6240,294,6480,334.8C6720,376,6960,359,7200,302.2C7440,245,7680,147,7920,163.3C8160,180,8400,310,8640,310.3C8880,310,9120,180,9360,114.3C9600,49,9840,49,10080,106.2C10320,163,10560,278,10800,310.3C11040,343,11280,294,11520,269.5C11760,245,12000,245,12240,261.3C12480,278,12720,310,12960,334.8C13200,359,13440,376,13680,367.5C13920,359,14160,327,14400,302.2C14640,278,14880,261,15120,277.7C15360,294,15600,343,15840,359.3C16080,376,16320,359,16560,343C16800,327,17040,310,17160,302.2L17280,294L17280,490L17160,490C17040,490,16800,490,16560,490C16320,490,16080,490,15840,490C15600,490,15360,490,15120,490C14880,490,14640,490,14400,490C14160,490,13920,490,13680,490C13440,490,13200,490,12960,490C12720,490,12480,490,12240,490C12000,490,11760,490,11520,490C11280,490,11040,490,10800,490C10560,490,10320,490,10080,490C9840,490,9600,490,9360,490C9120,490,8880,490,8640,490C8400,490,8160,490,7920,490C7680,490,7440,490,7200,490C6960,490,6720,490,6480,490C6240,490,6000,490,5760,490C5520,490,5280,490,5040,490C4800,490,4560,490,4320,490C4080,490,3840,490,3600,490C3360,490,3120,490,2880,490C2640,490,2400,490,2160,490C1920,490,1680,490,1440,490C1200,490,960,490,720,490C480,490,240,490,120,490L0,490Z"/><defs><linearGradient id="sw-gradient-1" x1="0" x2="0" y1="1" y2="0"><stop stop-color="rgba(139, 69, 19, 1)" offset="0%"/><stop stop-color="rgba(210, 105, 30, 1)" offset="100%"/></linearGradient></defs><path style="transform:translate(0, 50px); opacity:0.9" fill="url(#sw-gradient-1)" d="M0,441L120,400.2C240,359,480,278,720,228.7C960,180,1200,163,1440,171.5C1680,180,1920,212,2160,212.3C2400,212,2640,180,2880,187.8C3120,196,3360,245,3600,285.8C3840,327,4080,359,4320,359.3C4560,359,4800,327,5040,318.5C5280,310,5520,327,5760,294C6000,261,6240,180,6480,196C6720,212,6960,327,7200,326.7C7440,327,7680,212,7920,196C8160,180,8400,261,8640,277.7C8880,294,9120,245,9360,187.8C9600,131,9840,65,10080,73.5C10320,82,10560,163,10800,196C11040,229,11280,212,11520,220.5C11760,229,12000,261,12240,245C12480,229,12720,163,12960,171.5C13200,180,13440,261,13680,253.2C13920,245,14160,147,14400,98C14640,49,14880,49,15120,106.2C15360,163,15600,278,15840,285.8C16080,294,16320,196,16560,204.2C16800,212,17040,327,17160,383.8L17280,441L17280,490L17160,490C17040,490,16800,490,16560,490C16320,490,16080,490,15840,490C15600,490,15360,490,15120,490C14880,490,14640,490,14400,490C14160,490,13920,490,13680,490C13440,490,13200,490,12960,490C12720,490,12480,490,12240,490C12000,490,11760,490,11520,490C11280,490,11040,490,10800,490C10560,490,10320,490,10080,490C9840,490,9600,490,9360,490C9120,490,8880,490,8640,490C8400,490,8160,490,7920,490C7680,490,7440,490,7200,490C6960,490,6720,490,6480,490C6240,490,6000,490,5760,490C5520,490,5280,490,5040,490C4800,490,4560,490,4320,490C4080,490,3840,490,3600,490C3360,490,3120,490,2880,490C2640,490,2400,490,2160,490C1920,490,1680,490,1440,490C1200,490,960,490,720,490C480,490,240,490,120,490L0,490Z"/><defs><linearGradient id="sw-gradient-2" x1="0" x2="0" y1="1" y2="0"><stop stop-color="rgba(139, 69, 19, 1)" offset="0%"/><stop stop-color="rgba(210, 105, 30, 1)" offset="100%"/></linearGradient></defs><path style="transform:translate(0, 100px); opacity:0.8" fill="url(#sw-gradient-2)" d="M0,0L120,65.3C240,131,480,261,720,310.3C960,359,1200,327,1440,334.8C1680,343,1920,392,2160,351.2C2400,310,2640,180,2880,179.7C3120,180,3360,310,3600,334.8C3840,359,4080,278,4320,212.3C4560,147,4800,98,5040,73.5C5280,49,5520,49,5760,98C6000,147,6240,245,6480,277.7C6720,310,6960,278,7200,253.2C7440,229,7680,212,7920,171.5C8160,131,8400,65,8640,106.2C8880,147,9120,294,9360,294C9600,294,9840,147,10080,89.8C10320,33,10560,65,10800,130.7C11040,196,11280,294,11520,294C11760,294,12000,196,12240,155.2C12480,114,12720,131,12960,187.8C13200,245,13440,343,13680,334.8C13920,327,14160,212,14400,196C14640,180,14880,261,15120,261.3C15360,261,15600,180,15840,187.8C16080,196,16320,294,16560,302.2C16800,310,17040,229,17160,187.8L17280,147L17280,490L17160,490C17040,490,16800,490,16560,490C16320,490,16080,490,15840,490C15600,490,15360,490,15120,490C14880,490,14640,490,14400,490C14160,490,13920,490,13680,490C13440,490,13200,490,12960,490C12720,490,12480,490,12240,490C12000,490,11760,490,11520,490C11280,490,11040,490,10800,490C10560,490,10320,490,10080,490C9840,490,9600,490,9360,490C9120,490,8880,490,8640,490C8400,490,8160,490,7920,490C7680,490,7440,490,7200,490C6960,490,6720,490,6480,490C6240,490,6000,490,5760,490C5520,490,5280,490,5040,490C4800,490,4560,490,4320,490C4080,490,3840,490,3600,490C3360,490,3120,490,2880,490C2640,490,2400,490,2160,490C1920,490,1680,490,1440,490C1200,490,960,490,720,490C480,490,240,490,120,490L0,490Z"/><defs><linearGradient id="sw-gradient-3" x1="0" x2="0" y1="1" y2="0"><stop stop-color="rgba(139, 69, 19, 1)" offset="0%"/><stop stop-color="rgba(210, 105, 30, 1)" offset="100%"/></linearGradient></defs><path style="transform:translate(0, 150px); opacity:0.7" fill="url(#sw-gradient-3)" d="M0,343L120,294C240,245,480,147,720,89.8C960,33,1200,16,1440,49C1680,82,1920,163,2160,196C2400,229,2640,212,2880,179.7C3120,147,3360,98,3600,130.7C3840,163,4080,278,4320,334.8C4560,392,4800,392,5040,383.8C5280,376,5520,359,5760,294C6000,229,6240,114,6480,130.7C6720,147,6960,294,7200,367.5C7440,441,7680,441,7920,400.2C8160,359,8400,278,8640,236.8C8880,196,9120,196,9360,204.2C9600,212,9840,229,10080,253.2C10320,278,10560,310,10800,310.3C11040,310,11280,278,11520,245C11760,212,12000,180,12240,196C12480,212,12720,278,12960,310.3C13200,343,13440,343,13680,285.8C13920,229,14160,114,14400,122.5C14640,131,14880,261,15120,294C15360,327,15600,261,15840,236.8C16080,212,16320,229,16560,204.2C16800,180,17040,114,17160,81.7L17280,49L17280,490L17160,490C17040,490,16800,490,16560,490C16320,490,16080,490,15840,490C15600,490,15360,490,15120,490C14880,490,14640,490,14400,490C14160,490,13920,490,13680,490C13440,490,13200,490,12960,490C12720,490,12480,490,12240,490C12000,490,11760,490,11520,490C11280,490,11040,490,10800,490C10560,490,10320,490,10080,490C9840,490,9600,490,9360,490C9120,490,8880,490,8640,490C8400,490,8160,490,7920,490C7680,490,7440,490,7200,490C6960,490,6720,490,6480,490C6240,490,6000,490,5760,490C5520,490,5280,490,5040,490C4800,490,4560,490,4320,490C4080,490,3840,490,3600,490C3360,490,3120,490,2880,490C2640,490,2400,490,2160,490C1920,490,1680,490,1440,490C1200,490,960,490,720,490C480,490,240,490,120,490L0,490Z"/></svg>